<svg id="Layer_1" data-name="Layer 1" xmlns="http://www.w3.org/2000/svg" viewBox="0 0 80 80"><defs><style>.cls-1{fill:#fff;}</style></defs><title>logo80</title><path class="cls-1" d="M30.74,18.25C28.84,19.44,10.1,29.64,10.1,29.64c-4.64,2.45-5.14,5.51-2.5,9,6.26,6.48,14.05,1.91,16.09.27,1.31-1.05,3.55-3.43,5.11-4.61,4.76-3.61,10.51-6.07,19.46-.34a91.79,91.79,0,0,0,16.29,8.32c2,.7,6,2.45,8.38.14s.42-4.12-2.27-4.73a42.53,42.53,0,0,1-14.62-8c-.66-.68,7.82,5.76,13.3,6.93,2.34.37,3.35.06,3.37-.95,0-1.34-1.3-2.37-4-2.75-3.22-.51-10.33-4.2-11.33-4.55s8,3.49,10,3.19c.67,0,1.33-.53.69-1.33a3.63,3.63,0,0,0-2-1,62.69,62.69,0,0,1-15-6c-2.89,2.17-11.8,4.24-11.47,4.17.81-.18,10.69-3.45,12.51-6.16,2.06-3-.56-6.38-1.91-6.07-2.14.5-5.35,2.31-8.44,3.55C37.27,20.58,33,21.84,33,21.64s1.62-.84,6.07-2.25c1-.32,2.7-1,2.7-1.3C41.83,17,36.51,14.65,30.74,18.25Z"/><path class="cls-1" d="M48.47,37.26h0a13.86,13.86,0,0,0-19.61,0h0a13.86,13.86,0,0,0,0,19.61l8.95,8.95a1.21,1.21,0,0,0,1.71,0l8.95-8.95A13.86,13.86,0,0,0,48.47,37.26ZM39.45,52a5,5,0,1,1,4.14-4.14A5,5,0,0,1,39.45,52Z"/></svg>